# Blender v2.75 (sub 0) OBJ File: '2DTexturedQuadPlane.blend'
# www.blender.org
mtllib 2DTexturedQuadPlane.mtl
o Plane
v -1.000000 0.000000 1.000000
v 1.000000 0.000000 1.000000
v -1.000000 0.000000 -1.000000
v 1.000000 0.000000 -1.000000
v -1.000000 0.000000 0.000000
v 0.000000 0.000000 1.000000
v 1.000000 0.000000 0.000000
v 0.000000 0.000000 -1.000000
v 0.000000 0.000000 0.000000
vt 0.500000 0.500000
vt 0.500000 0.004951
vt 0.995049 0.004950
vt 0.995049 0.500000
vt 0.500000 0.995049
vt 0.995050 0.995049
vt 0.004951 0.995050
vt 0.004951 0.500000
vt 0.004950 0.004951
vn 0.000000 1.000000 0.000000
usemtl QuadPlane
s off
f 9/1/1 7/2/1 4/3/1 8/4/1
f 5/5/1 9/1/1 8/4/1 3/6/1
f 1/7/1 6/8/1 9/1/1 5/5/1
f 6/8/1 2/9/1 7/2/1 9/1/1
