# Blender v2.75 (sub 0) OBJ File: 'BeveledCube.blend'
# www.blender.org
mtllib BeveledCube.mtl
o Cube
v 0.750000 -0.138750 -0.138750
v 0.138750 -0.750000 -0.138750
v 0.138750 -0.138750 -0.750000
v 0.331282 -0.331282 -0.138750
v 0.236703 -0.236703 -0.236703
v 0.138750 -0.331282 -0.331282
v 0.331282 -0.138750 -0.331282
v 0.750000 -0.138750 0.138750
v 0.138750 -0.138750 0.750000
v 0.138750 -0.750000 0.138750
v 0.331281 -0.138750 0.331282
v 0.236703 -0.236703 0.236703
v 0.138750 -0.331282 0.331282
v 0.331282 -0.331282 0.138750
v -0.138750 -0.138750 0.750000
v -0.750000 -0.138750 0.138750
v -0.138750 -0.750000 0.138750
v -0.331282 -0.138750 0.331282
v -0.236703 -0.236703 0.236703
v -0.331282 -0.331282 0.138750
v -0.138750 -0.331282 0.331282
v -0.138750 -0.138750 -0.750000
v -0.138750 -0.750000 -0.138750
v -0.750000 -0.138750 -0.138750
v -0.138750 -0.331282 -0.331282
v -0.236703 -0.236703 -0.236703
v -0.331282 -0.331282 -0.138750
v -0.331282 -0.138750 -0.331282
v 0.138750 0.138750 -0.750000
v 0.138750 0.750000 -0.138750
v 0.750000 0.138750 -0.138750
v 0.138750 0.331282 -0.331282
v 0.236703 0.236703 -0.236703
v 0.331282 0.331282 -0.138750
v 0.331282 0.138750 -0.331282
v 0.138750 0.138750 0.750000
v 0.750000 0.138750 0.138750
v 0.138750 0.750000 0.138750
v 0.331282 0.138750 0.331282
v 0.236703 0.236703 0.236703
v 0.331282 0.331282 0.138750
v 0.138750 0.331282 0.331282
v -0.750000 0.138750 0.138750
v -0.138750 0.138750 0.750000
v -0.138750 0.750000 0.138750
v -0.331282 0.138750 0.331282
v -0.236703 0.236703 0.236703
v -0.138750 0.331282 0.331282
v -0.331282 0.331282 0.138750
v -0.750000 0.138750 -0.138750
v -0.138750 0.750000 -0.138750
v -0.138750 0.138750 -0.750000
v -0.331282 0.331282 -0.138750
v -0.236703 0.236703 -0.236703
v -0.138750 0.331282 -0.331282
v -0.331282 0.138750 -0.331282
vt 0.085638 0.542456
vt 0.085638 0.605843
vt 0.016755 0.605843
vt 0.710988 0.319221
vt 0.710988 0.382609
vt 0.642106 0.382609
vt 0.188030 0.914613
vt 0.119148 0.914613
vt 0.119148 0.844662
vt 0.188030 0.605843
vt 0.119148 0.605843
vt 0.119148 0.542456
vt 0.085638 0.844662
vt 0.085638 0.914613
vt 0.016755 0.914613
vt 0.016755 0.183484
vt 0.110513 0.120165
vt 0.139582 0.147072
vt 0.817400 0.520885
vt 0.777700 0.629837
vt 0.744498 0.629837
vt 0.975874 0.406879
vt 0.979225 0.514078
vt 0.953303 0.514078
vt 0.016755 0.446204
vt 0.110513 0.382886
vt 0.139582 0.409792
vt 0.294443 0.542456
vt 0.254742 0.651408
vt 0.221541 0.651408
vt 0.567604 0.939383
vt 0.542255 0.835265
vt 0.567604 0.829761
vt 0.173229 0.017015
vt 0.202162 0.120165
vt 0.173093 0.147072
vt 0.295920 0.183484
vt 0.190037 0.183484
vt 0.817400 0.017015
vt 0.777700 0.125967
vt 0.744498 0.125967
vt 0.710988 0.621428
vt 0.671287 0.730380
vt 0.638086 0.730380
vt 0.329566 0.279735
vt 0.358500 0.382885
vt 0.329430 0.409792
vt 0.452258 0.446204
vt 0.346374 0.446204
vt 0.508745 0.542455
vt 0.469044 0.651408
vt 0.435843 0.651408
vt 0.663435 0.982985
vt 0.638086 0.878867
vt 0.663435 0.873362
vt 0.485768 0.446204
vt 0.579526 0.382885
vt 0.608595 0.409792
vt 0.979894 0.017015
vt 0.983245 0.124214
vt 0.957323 0.124214
vt 0.329430 0.183484
vt 0.423188 0.120165
vt 0.452258 0.147072
vt 0.402332 0.542455
vt 0.362632 0.651408
vt 0.329430 0.651408
vt 0.295920 0.446204
vt 0.190037 0.446204
vt 0.173093 0.409792
vt 0.923812 0.017015
vt 0.884112 0.125967
vt 0.850911 0.125967
vt 0.173229 0.279735
vt 0.202162 0.382885
vt 0.608595 0.183484
vt 0.502712 0.183484
vt 0.485768 0.147072
vt 0.817400 0.268950
vt 0.777700 0.377902
vt 0.744498 0.377902
vt 0.485904 0.017015
vt 0.514837 0.120165
vt 0.028670 0.508425
vt 0.122639 0.446204
vt 0.919793 0.514078
vt 0.850911 0.514078
vt 0.850911 0.408529
vt 0.085638 0.810632
vt 0.016755 0.810632
vt 0.016755 0.694461
vt 0.085638 0.694461
vt 0.221541 0.794390
vt 0.290423 0.794390
vt 0.290423 0.899939
vt 0.122639 0.183484
vt 0.134554 0.245705
vt 0.028671 0.245705
vt 0.642106 0.017015
vt 0.710988 0.017015
vt 0.710988 0.133186
vt 0.642106 0.133186
vt 0.710988 0.221804
vt 0.341346 0.245705
vt 0.435314 0.183484
vt 0.813381 0.878368
vt 0.744498 0.878368
vt 0.744498 0.772819
vt 0.284005 0.245705
vt 0.178121 0.245705
vt 0.398313 0.899939
vt 0.329430 0.899939
vt 0.329430 0.794390
vt 0.850911 0.268950
vt 0.919793 0.268950
vt 0.919793 0.374499
vt 0.178121 0.508425
vt 0.440342 0.508425
vt 0.334459 0.508425
vt 0.846891 0.772819
vt 0.915774 0.772819
vt 0.915774 0.878368
vt 0.439862 0.794390
vt 0.508745 0.794390
vt 0.508745 0.899939
vt 0.591651 0.446204
vt 0.603567 0.508425
vt 0.497683 0.508425
vt 0.188030 0.810632
vt 0.119148 0.810632
vt 0.119148 0.694461
vt 0.188030 0.694461
vt 0.710988 0.587397
vt 0.642106 0.587397
vt 0.642106 0.471227
vt 0.710988 0.471227
vt 0.919793 0.653657
vt 0.850911 0.653657
vt 0.850911 0.548108
vt 0.490797 0.245705
vt 0.642106 0.285191
vt 0.642106 0.221804
vt 0.016755 0.542456
vt 0.642106 0.319221
vt 0.188030 0.844662
vt 0.188030 0.542456
vt 0.016755 0.844662
vt 0.139447 0.017015
vt 0.817400 0.738789
vt 0.139447 0.279735
vt 0.294443 0.760360
vt 0.817400 0.234920
vt 0.979212 0.548108
vt 0.979212 0.655362
vt 0.953303 0.548944
vt 0.542255 0.646574
vt 0.567604 0.542455
vt 0.567604 0.652078
vt 0.710988 0.839332
vt 0.608459 0.279735
vt 0.508745 0.760360
vt 0.402332 0.760360
vt 0.452122 0.017015
vt 0.542255 0.790226
vt 0.567604 0.686108
vt 0.567604 0.795731
vt 0.923812 0.234920
vt 0.975193 0.772819
vt 0.975193 0.880072
vt 0.949284 0.773654
vt 0.817400 0.486854
vt 0.134554 0.508425
vt 0.919793 0.408529
vt 0.221541 0.899939
vt 0.447229 0.245705
vt 0.813381 0.772819
vt 0.398313 0.794390
vt 0.850911 0.374499
vt 0.284005 0.508425
vt 0.846891 0.878368
vt 0.439862 0.899939
vt 0.919793 0.548108
vt 0.596680 0.245705
vt 0.710988 0.285191
vn 0.000000 0.000000 -1.000000
vn 0.000000 0.000000 1.000000
vn -1.000000 -0.000000 0.000000
vn 0.000000 1.000000 -0.000000
vn 1.000000 0.000000 -0.000000
vn 0.257100 -0.559200 -0.788200
vn 0.788200 -0.257100 -0.559200
vn 0.559200 -0.788200 -0.257100
vn 0.257100 -0.788200 0.559200
vn 0.788200 -0.559200 0.257100
vn 0.559200 -0.257100 0.788200
vn -0.559200 -0.788200 0.257100
vn -0.257100 -0.559200 0.788200
vn -0.788200 -0.257100 0.559200
vn -0.788200 -0.559200 -0.257100
vn -0.559200 -0.257100 -0.788200
vn -0.257100 -0.788200 -0.559200
vn 0.788200 0.559200 -0.257100
vn 0.559200 0.257100 -0.788200
vn 0.257100 0.788200 -0.559200
vn 0.559200 0.788200 0.257100
vn 0.257100 0.559200 0.788200
vn 0.788200 0.257100 0.559200
vn -0.257100 0.788200 0.559200
vn -0.788200 0.559200 0.257100
vn -0.559200 0.257100 0.788200
vn -0.257100 0.559200 -0.788200
vn -0.788200 0.257100 -0.559200
vn -0.559200 0.788200 -0.257100
vn 0.417800 -0.908600 0.000000
vn 0.908600 -0.417800 0.000000
vn 0.000000 -0.417800 -0.908600
vn 0.000000 -0.908600 -0.417800
vn 0.908600 -0.000000 -0.417800
vn 0.417800 0.000000 -0.908600
vn -0.000000 -0.908600 0.417800
vn -0.000000 -0.417800 0.908600
vn 0.417800 -0.000000 0.908600
vn 0.908600 -0.000000 0.417800
vn -0.417800 -0.908600 0.000000
vn -0.908600 -0.417800 -0.000000
vn -0.908600 -0.000000 0.417800
vn -0.417800 -0.000000 0.908600
vn -0.417800 0.000000 -0.908600
vn -0.908600 0.000000 -0.417800
vn 0.908600 0.417800 0.000000
vn 0.417800 0.908600 0.000000
vn -0.000000 0.908600 -0.417800
vn -0.000000 0.417800 -0.908600
vn -0.000000 0.417800 0.908600
vn 0.000000 0.908600 0.417800
vn -0.908600 0.417800 -0.000000
vn -0.417800 0.908600 -0.000000
vn 0.000000 -1.000000 0.000000
vn 0.257100 -0.788200 -0.559200
vn 0.559200 -0.257100 -0.788200
vn 0.788200 -0.559200 -0.257100
vn 0.257100 -0.559200 0.788200
vn 0.559200 -0.788200 0.257100
vn 0.788200 -0.257100 0.559200
vn -0.788200 -0.559200 0.257100
vn -0.257100 -0.788200 0.559200
vn -0.559200 -0.257100 0.788200
vn -0.559200 -0.788200 -0.257100
vn -0.788200 -0.257100 -0.559200
vn -0.257100 -0.559200 -0.788200
vn 0.559200 0.788200 -0.257100
vn 0.788200 0.257100 -0.559200
vn 0.257100 0.559200 -0.788200
vn 0.788200 0.559200 0.257100
vn 0.257100 0.788200 0.559200
vn 0.559200 0.257100 0.788200
vn -0.257100 0.559200 0.788200
vn -0.559200 0.788200 0.257100
vn -0.788200 0.257100 0.559200
vn -0.257100 0.788200 -0.559200
vn -0.559200 0.257100 -0.788200
vn -0.788200 0.559200 -0.257100
usemtl BeveledCube
s off
f 29/1/1 3/2/1 22/3/1
f 9/4/2 36/5/2 44/6/2
f 16/7/3 43/8/3 50/9/3
f 30/10/4 51/11/4 45/12/4
f 1/13/5 31/14/5 37/15/5
f 1/16/6 4/17/6 5/18/6
f 2/19/7 6/20/7 5/21/7
f 3/22/8 7/23/8 5/24/8
f 8/25/9 11/26/9 12/27/9
f 9/28/10 13/29/10 12/30/10
f 10/31/11 14/32/11 12/33/11
f 15/34/12 18/35/12 19/36/12
f 16/37/13 20/38/13 19/36/13
f 17/39/14 21/40/14 19/41/14
f 22/42/15 25/43/15 26/44/15
f 23/45/16 27/46/16 26/47/16
f 24/48/17 28/49/17 26/47/17
f 29/50/18 32/51/18 33/52/18
f 30/53/19 34/54/19 33/55/19
f 31/56/20 35/57/20 33/58/20
f 36/59/21 39/60/21 40/61/21
f 37/62/22 41/63/22 40/64/22
f 38/65/23 42/66/23 40/67/23
f 43/68/24 46/69/24 47/70/24
f 44/71/25 48/72/25 47/73/25
f 45/74/26 49/75/26 47/70/26
f 50/76/27 53/77/27 54/78/27
f 51/79/28 55/80/28 54/81/28
f 52/82/29 56/83/29 54/78/29
f 1/84/30 8/25/30 14/85/30
f 4/86/31 14/87/31 10/88/31
f 2/89/32 23/90/32 25/91/32
f 6/92/33 25/91/33 22/3/33
f 3/93/34 29/94/34 35/95/34
f 7/96/35 35/97/35 31/98/35
f 9/99/36 15/100/36 21/101/36
f 13/102/37 21/101/37 17/103/37
f 8/104/38 37/62/38 39/105/38
f 11/106/39 39/107/39 36/108/39
f 16/37/40 24/109/40 27/110/40
f 20/111/41 27/112/41 23/113/41
f 15/114/42 44/115/42 46/116/42
f 18/117/43 46/69/43 43/68/43
f 24/48/44 50/118/44 56/119/44
f 28/120/45 56/121/45 52/122/45
f 30/123/46 38/124/46 41/125/46
f 34/126/47 41/127/47 37/128/47
f 29/129/48 52/130/48 55/131/48
f 32/132/49 55/131/49 51/11/49
f 38/133/50 45/134/50 48/135/50
f 42/136/51 48/135/51 44/6/51
f 45/137/52 51/138/52 53/139/52
f 49/140/53 53/77/53 50/76/53
f 2/141/54 10/142/54 17/103/54
f 52/143/1 29/1/1 22/3/1
f 15/144/2 9/4/2 44/6/2
f 24/145/3 16/7/3 50/9/3
f 38/146/4 30/10/4 45/12/4
f 8/147/5 1/13/5 37/15/5
f 7/96/55 1/16/55 5/18/55
f 4/17/56 2/148/56 5/18/56
f 6/20/57 3/149/57 5/21/57
f 14/85/58 8/25/58 12/27/58
f 11/26/59 9/150/59 12/27/59
f 13/29/60 10/151/60 12/30/60
f 21/40/61 15/152/61 19/41/61
f 18/35/62 16/37/62 19/36/62
f 20/153/63 17/154/63 19/155/63
f 28/156/64 22/157/64 26/158/64
f 25/43/65 23/159/65 26/44/65
f 27/46/66 24/48/66 26/47/66
f 35/57/67 29/160/67 33/58/67
f 32/51/68 30/161/68 33/52/68
f 34/126/69 31/56/69 33/58/69
f 42/66/70 36/162/70 40/67/70
f 39/105/71 37/62/71 40/64/71
f 41/63/72 38/163/72 40/64/72
f 49/75/73 43/68/73 47/70/73
f 46/164/74 44/165/74 47/166/74
f 48/72/75 45/167/75 47/73/75
f 56/83/76 50/76/76 54/78/76
f 53/168/77 51/169/77 54/170/77
f 55/80/78 52/171/78 54/81/78
f 4/172/30 1/84/30 14/85/30
f 2/173/31 4/86/31 10/88/31
f 6/92/32 2/89/32 25/91/32
f 3/2/33 6/92/33 22/3/33
f 7/174/34 3/93/34 35/95/34
f 1/16/35 7/96/35 31/98/35
f 13/102/36 9/99/36 21/101/36
f 10/142/37 13/102/37 17/103/37
f 11/175/38 8/104/38 39/105/38
f 9/176/39 11/106/39 36/108/39
f 20/38/40 16/37/40 27/110/40
f 17/177/41 20/111/41 23/113/41
f 18/178/42 15/114/42 46/116/42
f 16/179/43 18/117/43 43/68/43
f 28/49/44 24/48/44 56/119/44
f 22/180/45 28/120/45 52/122/45
f 34/181/46 30/123/46 41/125/46
f 31/56/47 34/126/47 37/128/47
f 32/132/48 29/129/48 55/131/48
f 30/10/49 32/132/49 51/11/49
f 42/136/50 38/133/50 48/135/50
f 36/5/51 42/136/51 44/6/51
f 49/182/52 45/137/52 53/139/52
f 43/183/53 49/140/53 50/76/53
f 23/184/54 2/141/54 17/103/54
